<svg width="11" height="12" viewBox="0 0 11 12" fill="none" xmlns="http://www.w3.org/2000/svg">
<path d="M10.6843 5.66703C10.6427 5.55971 10.5802 5.46166 10.5005 5.37852L6.12369 1.00712C6.04207 0.925602 5.94518 0.86094 5.83854 0.816823C5.7319 0.772707 5.61761 0.75 5.50218 0.75C5.26907 0.75 5.04551 0.842488 4.88067 1.00712C4.79906 1.08863 4.73431 1.18541 4.69014 1.29192C4.64597 1.39842 4.62324 1.51258 4.62324 1.62786C4.62324 1.86068 4.71584 2.08397 4.88067 2.2486L7.76937 5.12497H1.12536C0.893203 5.12497 0.670551 5.21709 0.506388 5.38105C0.342226 5.545 0.25 5.76738 0.25 5.99925C0.25 6.23113 0.342226 6.4535 0.506388 6.61746C0.670551 6.78142 0.893203 6.87353 1.12536 6.87353H7.76937L4.88067 9.74991C4.79863 9.83119 4.73351 9.92789 4.68906 10.0344C4.64462 10.141 4.62174 10.2552 4.62174 10.3707C4.62174 10.4861 4.64462 10.6003 4.68906 10.7069C4.73351 10.8134 4.79863 10.9101 4.88067 10.9914C4.96205 11.0733 5.05887 11.1384 5.16554 11.1828C5.27221 11.2271 5.38662 11.25 5.50218 11.25C5.61774 11.25 5.73216 11.2271 5.83883 11.1828C5.9455 11.1384 6.04231 11.0733 6.12369 10.9914L10.5005 6.61999C10.5802 6.53685 10.6427 6.4388 10.6843 6.33148C10.7719 6.11863 10.7719 5.87988 10.6843 5.66703Z" fill="white"/>
</svg>
