<svg width="18" height="16" viewBox="0 0 18 16" fill="none" xmlns="http://www.w3.org/2000/svg">
<path d="M14.8333 3.41671H13.7666L13.5 2.58337C13.3271 2.0944 13.0064 1.67129 12.5824 1.37267C12.1583 1.07405 11.6519 0.914706 11.1333 0.916706H6.86663C6.34292 0.917685 5.83274 1.08311 5.4081 1.38963C4.98346 1.69615 4.6658 2.12828 4.49996 2.62504L4.23329 3.45837H3.16663C2.50358 3.45837 1.8677 3.72176 1.39886 4.19061C0.930018 4.65945 0.666626 5.29533 0.666626 5.95837V12.625C0.666626 13.2881 0.930018 13.924 1.39886 14.3928C1.8677 14.8616 2.50358 15.125 3.16663 15.125H14.8333C15.4963 15.125 16.1322 14.8616 16.6011 14.3928C17.0699 13.924 17.3333 13.2881 17.3333 12.625V5.95837C17.3388 5.62658 17.2782 5.297 17.1551 4.98886C17.0319 4.68072 16.8487 4.40019 16.616 4.16361C16.3833 3.92703 16.1058 3.73915 15.7997 3.61091C15.4937 3.48268 15.1651 3.41666 14.8333 3.41671ZM15.6666 12.5834C15.6666 12.8044 15.5788 13.0163 15.4225 13.1726C15.2663 13.3289 15.0543 13.4167 14.8333 13.4167H3.16663C2.94561 13.4167 2.73365 13.3289 2.57737 13.1726C2.42109 13.0163 2.33329 12.8044 2.33329 12.5834V5.91671C2.33329 5.69569 2.42109 5.48373 2.57737 5.32745C2.73365 5.17117 2.94561 5.08337 3.16663 5.08337H4.83329C5.01501 5.09286 5.19485 5.0426 5.34532 4.94028C5.4958 4.83795 5.60864 4.68919 5.66663 4.51671L6.11663 3.15004C6.17253 2.98452 6.27904 2.84076 6.4211 2.73907C6.56316 2.63739 6.73359 2.58292 6.90829 2.58337H11.175C11.3497 2.58292 11.5201 2.63739 11.6621 2.73907C11.8042 2.84076 11.9107 2.98452 11.9666 3.15004L12.4166 4.51671C12.4701 4.67566 12.5703 4.81478 12.7041 4.91588C12.8379 5.01698 12.9991 5.07536 13.1666 5.08337H14.8333C15.0543 5.08337 15.2663 5.17117 15.4225 5.32745C15.5788 5.48373 15.6666 5.69569 15.6666 5.91671V12.5834ZM8.99996 5.08337C8.34069 5.08337 7.69622 5.27887 7.14806 5.64514C6.5999 6.01141 6.17265 6.53201 5.92036 7.14109C5.66807 7.75018 5.60206 8.4204 5.73067 9.06701C5.85929 9.71361 6.17676 10.3076 6.64294 10.7737C7.10911 11.2399 7.70305 11.5574 8.34966 11.686C8.99626 11.8146 9.66648 11.7486 10.2756 11.4963C10.8847 11.244 11.4053 10.8168 11.7715 10.2686C12.1378 9.72044 12.3333 9.07598 12.3333 8.41671C12.3333 7.53265 11.9821 6.6848 11.357 6.05968C10.7319 5.43456 9.88401 5.08337 8.99996 5.08337ZM8.99996 10.0834C8.67032 10.0834 8.34809 9.98562 8.07401 9.80249C7.79993 9.61935 7.58631 9.35905 7.46016 9.05451C7.33401 8.74997 7.30101 8.41486 7.36532 8.09155C7.42963 7.76825 7.58836 7.47128 7.82145 7.23819C8.05454 7.00511 8.35151 6.84637 8.67481 6.78206C8.99811 6.71775 9.33322 6.75076 9.63776 6.87691C9.94231 7.00305 10.2026 7.21667 10.3857 7.49076C10.5689 7.76484 10.6666 8.08707 10.6666 8.41671C10.6666 8.85873 10.491 9.28266 10.1785 9.59522C9.86591 9.90778 9.44199 10.0834 8.99996 10.0834Z" fill="white"/>
</svg>
