<svg width="15" height="16" viewBox="0 0 15 16" fill="none" xmlns="http://www.w3.org/2000/svg">
<path d="M2.25 12.5H5.43C5.5287 12.5006 5.62655 12.4817 5.71793 12.4443C5.80931 12.407 5.89242 12.352 5.9625 12.2825L11.1525 7.08502L13.2825 5.00002C13.3528 4.93029 13.4086 4.84734 13.4467 4.75595C13.4847 4.66455 13.5043 4.56652 13.5043 4.46752C13.5043 4.36851 13.4847 4.27048 13.4467 4.17908C13.4086 4.08769 13.3528 4.00474 13.2825 3.93502L10.1025 0.717515C10.0328 0.647219 9.94983 0.591423 9.85843 0.553347C9.76704 0.51527 9.66901 0.495667 9.57 0.495667C9.47099 0.495667 9.37296 0.51527 9.28157 0.553347C9.19017 0.591423 9.10722 0.647219 9.0375 0.717515L6.9225 2.84002L1.7175 8.03752C1.64799 8.1076 1.593 8.19071 1.55567 8.28209C1.51835 8.37346 1.49943 8.47131 1.5 8.57001V11.75C1.5 11.9489 1.57902 12.1397 1.71967 12.2803C1.86032 12.421 2.05109 12.5 2.25 12.5ZM9.57 2.30752L11.6925 4.43002L10.6275 5.49502L8.505 3.37252L9.57 2.30752ZM3 8.87752L7.4475 4.43002L9.57 6.55252L5.1225 11H3V8.87752ZM14.25 14H0.75C0.551088 14 0.360322 14.079 0.21967 14.2197C0.0790176 14.3603 0 14.5511 0 14.75C0 14.9489 0.0790176 15.1397 0.21967 15.2803C0.360322 15.421 0.551088 15.5 0.75 15.5H14.25C14.4489 15.5 14.6397 15.421 14.7803 15.2803C14.921 15.1397 15 14.9489 15 14.75C15 14.5511 14.921 14.3603 14.7803 14.2197C14.6397 14.079 14.4489 14 14.25 14Z" fill="white"/>
</svg>
