<svg width="18" height="19" viewBox="0 0 18 19" fill="none" xmlns="http://www.w3.org/2000/svg">
<path d="M15.71 7.3C15.8731 7.46373 15.9743 7.67885 15.9967 7.90882C16.0191 8.13878 15.9611 8.36939 15.8327 8.56145C15.7042 8.75351 15.5132 8.89517 15.2922 8.96236C15.0711 9.02955 14.8336 9.01811 14.62 8.93C14.4985 8.87564 14.3869 8.80128 14.29 8.71C14.2001 8.61785 14.1288 8.50919 14.08 8.39C14.0229 8.26817 13.9954 8.1345 14 8C14.0011 7.73766 14.1053 7.48626 14.29 7.3C14.383 7.20627 14.4936 7.13188 14.6155 7.08111C14.7373 7.03034 14.868 7.0042 15 7.0042C15.132 7.0042 15.2627 7.03034 15.3846 7.08111C15.5065 7.13188 15.6171 7.20627 15.71 7.3ZM15 2C14.7348 2 14.4805 2.10536 14.2929 2.29289C14.1054 2.48043 14 2.73478 14 3C14 3.26522 14.1054 3.51957 14.2929 3.70711C14.4805 3.89464 14.7348 4 15 4C15.2652 4 15.5196 4.10536 15.7071 4.29289C15.8947 4.48043 16 4.73478 16 5C16 5.26522 15.8947 5.51957 15.7071 5.70711C15.5196 5.89464 15.2652 6 15 6C14.4735 5.99966 13.9563 5.86075 13.5005 5.59723C13.0447 5.33371 12.6662 4.95486 12.4032 4.49875C12.1401 4.04264 12.0017 3.52533 12.002 2.9988C12.0022 2.47227 12.1409 1.95507 12.4044 1.49917C12.6678 1.04326 13.0465 0.664718 13.5026 0.401563C13.9586 0.138409 14.4759 -8.42941e-05 15.0024 3.84915e-08C15.529 8.43711e-05 16.0462 0.138743 16.5022 0.402044C16.9581 0.665344 17.3368 1.04401 17.6 1.5C17.6661 1.61413 17.709 1.74022 17.7262 1.871C17.7434 2.00178 17.7345 2.13466 17.7002 2.262C17.6658 2.38934 17.6065 2.50862 17.5258 2.61297C17.4451 2.71732 17.3446 2.80467 17.23 2.87C17.0004 3.00037 16.7286 3.03464 16.4738 2.96532C16.219 2.896 16.002 2.72873 15.87 2.5C15.7819 2.34739 15.6551 2.22078 15.5023 2.13298C15.3495 2.04517 15.1762 1.9993 15 2ZM3.00003 3H9.00003C9.26525 3 9.5196 3.10536 9.70714 3.29289C9.89467 3.48043 10 3.73478 10 4C10 4.26522 9.89467 4.51957 9.70714 4.70711C9.5196 4.89464 9.26525 5 9.00003 5H3.00003C2.73481 5 2.48046 5.10536 2.29292 5.29289C2.10539 5.48043 2.00003 5.73478 2.00003 6V15.72L3.57003 14.27C3.75445 14.0973 3.9974 14.0009 4.25003 14H13C13.2652 14 13.5196 13.8946 13.7071 13.7071C13.8947 13.5196 14 13.2652 14 13V12C14 11.7348 14.1054 11.4804 14.2929 11.2929C14.4805 11.1054 14.7348 11 15 11C15.2652 11 15.5196 11.1054 15.7071 11.2929C15.8947 11.4804 16 11.7348 16 12V13C16 13.7956 15.684 14.5587 15.1214 15.1213C14.5587 15.6839 13.7957 16 13 16H4.64003L1.64003 18.73C1.46581 18.8936 1.23877 18.9894 1.00003 19C0.862875 18.9985 0.727211 18.9714 0.600031 18.92C0.421154 18.8419 0.26903 18.7132 0.162415 18.5497C0.0557995 18.3863 -0.000648499 18.1952 3.05176e-05 18V6C3.05176e-05 5.20435 0.316101 4.44129 0.87871 3.87868C1.44132 3.31607 2.20438 3 3.00003 3Z" fill="#55A6FF"/>
</svg>
